<?xml version="1.0" encoding="utf-8"?>
<!-- Generator: Adobe Illustrator 25.4.1, SVG Export Plug-In . SVG Version: 6.00 Build 0)  -->
<svg version="1.1" id="Layer_1" opacity="0.1" xmlns="http://www.w3.org/2000/svg" xmlns:xlink="http://www.w3.org/1999/xlink"
	 x="0px" y="0px" viewBox="0 0 485.8 483.5" style="enable-background:new 0 0 485.8 483.5;" xml:space="preserve">
<style type="text/css">
	.st0{fill:#E6E6E6;}
	.st1{fill:#FFFFFF;}
	.st2{fill:#F2F2F2;}
	.st3{fill:#CCCCCC;}
	.st4{fill:#FFB8B8;}
	.st5{fill:#2F2E41;}
	.st6{fill:#3B71CA;}
	.st7{opacity:0.2;enable-background:new    ;}
</style>
<path class="st0" d="M165.4,128.1h79.7c3.5,0,6.9-1.6,9.1-4.4l0,0c2.2-2.8,3-6.5,2.2-10c-7.3-30.8-7.4-62.9,0-93.6
	c0.8-3.5,0-7.2-2.2-10s-5.5-4.4-9.1-4.4h-79.7c-5.7,0-10.5,4.1-11.4,9.8c-5.2,34.1-5.2,68.8,0,102.9
	C154.8,124,159.7,128.1,165.4,128.1z"/>
<path class="st1" d="M245.1,11.7c1.7,0,3.3,0.8,4.4,2.1c1.1,1.4,1.5,3.2,1.1,4.9c-7.6,31.7-7.6,64.7,0,96.4c0.4,1.7,0,3.5-1.1,4.9
	l0,0c-1,1.3-2.7,2.1-4.4,2.1h-79.7c-2.7,0-5.1-2-5.5-4.7c-5.2-33.5-5.2-67.6,0-101c0.4-2.7,2.8-4.7,5.5-4.7
	C165.4,11.7,245.1,11.7,245.1,11.7z"/>
<path class="st0" d="M182.8,40.6h41.8c3.3,0,6-2.7,6-6v-2.3c0-3.3-2.7-6-6-6h-41.8c-3.3,0-6,2.7-6,6v2.3
	C176.8,37.9,179.5,40.6,182.8,40.6z"/>
<path class="st0" d="M182.8,70.2h41.8c3.3,0,6-2.7,6-6v-2.3c0-3.3-2.7-6-6-6h-41.8c-3.3,0-6,2.7-6,6v2.3
	C176.8,67.5,179.5,70.2,182.8,70.2z"/>
<path class="st0" d="M182.8,99.8h41.8c3.3,0,6-2.7,6-6v-2.3c0-3.3-2.7-6-6-6h-41.8c-3.3,0-6,2.7-6,6v2.3
	C176.8,97.1,179.5,99.8,182.8,99.8z"/>
<path class="st0" d="M15.4,204.1h79.7c3.5,0,6.9-1.6,9.1-4.4l0,0c2.2-2.8,3-6.5,2.2-10c-7.3-30.8-7.4-62.9,0-93.6
	c0.8-3.5,0-7.2-2.2-10s-5.5-4.4-9.1-4.4H15.4c-5.7,0-10.5,4.1-11.4,9.8c-5.2,34.1-5.2,68.8,0,102.9C4.8,200,9.7,204.1,15.4,204.1z"
	/>
<path class="st1" d="M95.1,87.7c1.7,0,3.3,0.8,4.4,2.1c1.1,1.4,1.5,3.2,1.1,4.9c-7.6,31.7-7.6,64.7,0,96.4c0.4,1.7,0,3.5-1.1,4.9
	l0,0c-1,1.3-2.7,2.1-4.4,2.1H15.4c-2.7,0-5.1-2-5.5-4.7c-5.2-33.5-5.2-67.6,0-101c0.4-2.7,2.8-4.7,5.5-4.7L95.1,87.7L95.1,87.7z"/>
<path class="st2" d="M174.4,290.6h79.7c3.7,0,7.2-1.7,9.5-4.6s3.2-6.8,2.3-10.4c-7.3-30.7-7.3-62.7,0-93.4c0.9-3.6,0-7.5-2.3-10.4
	s-5.8-4.6-9.5-4.6h-79.7c-5.9,0-11,4.3-11.9,10.2c-5.3,34.1-5.3,68.9,0,103C163.4,286.3,168.4,290.6,174.4,290.6z"/>
<path class="st0" d="M32.8,131.6h41.8c3.3,0,6-2.7,6-6v-2.3c0-3.3-2.7-6-6-6H32.8c-3.3,0-6,2.7-6,6v2.3
	C26.8,128.9,29.5,131.6,32.8,131.6z"/>
<path class="st0" d="M32.8,161.2h41.8c3.3,0,6-2.7,6-6v-2.3c0-3.3-2.7-6-6-6H32.8c-3.3,0-6,2.7-6,6v2.3
	C26.8,158.5,29.5,161.2,32.8,161.2z"/>
<circle class="st1" cx="214" cy="228.5" r="23"/>
<path class="st0" d="M203,225.5h8v-8c0-1.7,1.3-3,3-3s3,1.3,3,3v8h8c1.7,0,3,1.3,3,3s-1.3,3-3,3h-8v8c0,1.7-1.3,3-3,3s-3-1.3-3-3v-8
	h-8c-1.7,0-3-1.3-3-3S201.4,225.5,203,225.5z"/>
<path class="st3" d="M185,17h42c2.5,0,4.5-2,4.5-4.5v-8c0-2.5-2-4.5-4.5-4.5h-42c-2.5,0-4.5,2-4.5,4.5v8C180.5,15,182.5,17,185,17z"
	/>
<path class="st3" d="M33,94h42c2.5,0,4.5-2,4.5-4.5v-8c0-2.5-2-4.5-4.5-4.5H33c-2.5,0-4.5,2-4.5,4.5v8C28.5,92,30.5,94,33,94z"/>
<polygon class="st4" points="397.2,471.1 385,471.1 381.1,423.8 397.2,423.8 "/>
<path class="st5" d="M400.4,467.1h-24.1l0,0c-8.5,0-15.4,6.9-15.4,15.4l0,0v0.5h39.5V467.1z"/>
<polygon class="st4" points="463.2,471.1 451,471.1 445.1,423.8 463.2,423.8 "/>
<path class="st5" d="M466.4,467.1h-24.1l0,0c-8.5,0-15.4,6.9-15.4,15.4l0,0v0.5h39.5V467.1z"/>
<path class="st5" d="M461.1,456.1c1.3,0,2.5-0.5,3.4-1.3l0,0c1-0.9,1.6-2.2,1.6-3.5l4.9-176.2l-69.8,17.5l-21.5,64.6
	c-2.8,8.3-4,17.1-3.5,25.8l2.7,62.6c0.1,2.7,2.3,4.8,5,4.8h11.7c2.5,0,4.6-1.9,5-4.3L409,377c0.7-5.4,2.6-10.6,5.5-15.2l16.5-26.1
	c0.3-0.5,0.9-0.6,1.4-0.3c0.3,0.2,0.4,0.4,0.5,0.7l12.9,115.1c0.3,2.4,2.3,4.3,4.7,4.4l10.6,0.6C460.9,456.1,461,456.1,461.1,456.1z
	"/>
<circle class="st4" cx="412.8" cy="136.4" r="24.6"/>
<path class="st6" d="M401.5,299.7c0.4,0,0.8-0.1,1.3-0.2l0,0l69.3-17.8c2.6-0.7,4.2-3.2,3.7-5.8l-15.9-85.7
	c-2-10.1-8.8-18.5-18.2-22.5c-9.2-4.1-19.8-3.3-28.3,2.1c-1,0.6-1.9,1.3-2.9,2c-7.8,5.8-12.5,14.8-12.6,24.5l-1.3,98.3
	C396.5,297.4,398.7,299.6,401.5,299.7L401.5,299.7z"/>
<path class="st4" d="M464.9,300.7c3.1-4.6,1.9-10.8-2.7-14c-0.5-0.3-1-0.6-1.5-0.9l3.1-35.6l-16.3,8.8l-0.4,32.5
	c-1.9,5.2,0.7,11.1,6,13C457.4,306.2,462.3,304.6,464.9,300.7z"/>
<path class="st6" d="M459.1,281.1c0.5,0,0.9-0.1,1.4-0.2c2-0.5,3.5-2,4-4l8-31.9c2.8-11.1,1.5-22.9-3.8-33.1L451.9,179
	c-2.2-8.2-10.6-13.1-18.8-11c-4,1-7.4,3.6-9.5,7.1c-2.1,3.6-2.7,7.9-1.7,11.9l23.9,53.5l-0.3,32c0,2.3,1.4,4.4,3.6,5.2l8,3
	C457.8,281,458.4,281.1,459.1,281.1z"/>
<path class="st4" d="M344.5,287.6c5.5-0.6,9.5-5.6,8.8-11.1c-0.1-0.6-0.2-1.2-0.4-1.7l29-20.9l-17.4-6.6l-24.9,20.8
	c-5.2,1.9-7.9,7.8-5.9,13C335.5,285.5,339.9,288.1,344.5,287.6L344.5,287.6z"/>
<path class="st6" d="M359.7,272.3c0.9,0,1.7-0.2,2.5-0.6l29.4-14.7c10.3-5.1,18.3-13.8,22.7-24.5l14-34.2c4.8-7,3-16.6-3.9-21.4
	c-3.4-2.4-7.5-3.3-11.6-2.5c-4.1,0.7-7.7,3.1-10.1,6.5l-24.9,53l-24.5,20.7c-1.8,1.5-2.4,3.9-1.6,6.1l3,8c0.4,1.1,1.1,2,2,2.6
	C357.5,272,358.6,272.3,359.7,272.3z"/>
<path class="st5" d="M417.9,161.3c-1.3,0.6-4-9.8-2.8-11.9c1.8-3.1,1.7-3.1,2.9-5.1s1.4-4.8-0.1-6.6s-5.1-1.6-5.8,0.7
	c0.4-4.3-3.8-7.7-8-8.7s-8.6-0.4-12.9-1.2c-4.9-1-10-5.1-8-10.5c0.3-0.9,0.8-1.7,1.5-2.4c2.3-2.5,5.4-3.6,8.5-4.7
	c6.4-2.2,13-4.4,19.8-4.2c11.4,0.6,21.4,7.9,25.4,18.6c0.5,1.3,0.8,2.7,1.1,4c2.3,12.5-4.9,24.9-16.8,29.6L417.9,161.3z"/>
<polygon class="st7" points="446.9,273.3 446.4,240.4 428.9,205.3 442.9,241.3 "/>
<path class="st0" d="M288.8,356l73.6-30.6c3.3-1.3,5.7-4.1,6.7-7.5l0,0c1-3.4,0.3-7.2-1.8-10c-18.6-25.6-30.9-55.2-35.9-86.5
	c-0.6-3.5-2.7-6.6-5.8-8.4c-3.1-1.7-6.8-1.9-10.1-0.6L241.8,243c-5.2,2.2-8.1,7.9-6.8,13.4c8.2,33.5,21.5,65.5,39.5,95
	C277.4,356.2,283.5,358.1,288.8,356z"/>
<path class="st1" d="M317.7,217.9c1.6-0.7,3.3-0.6,4.8,0.3c1.5,0.8,2.6,2.4,2.8,4.1c5.2,32.2,17.9,62.7,37,89.1
	c1,1.4,1.4,3.2,0.9,4.9l0,0c-0.5,1.6-1.6,3-3.2,3.6l-73.6,30.6c-2.5,1-5.4,0.1-6.9-2.2c-17.6-28.9-30.7-60.4-38.8-93.3
	c-0.6-2.7,0.8-5.4,3.3-6.4L317.7,217.9z"/>
<path class="st6" d="M278.5,286l38.6-16.1c3.1-1.3,4.5-4.8,3.2-7.8l-0.9-2.2c-1.3-3.1-4.8-4.5-7.8-3.2L273,272.8
	c-3.1,1.3-4.5,4.8-3.2,7.8l0.9,2.2C272,285.9,275.5,287.3,278.5,286z"/>
<path class="st6" d="M289.9,313.4l38.6-16.1c3.1-1.3,4.5-4.8,3.2-7.8l-0.9-2.2c-1.3-3.1-4.8-4.5-7.8-3.2l-38.6,16.1
	c-3.1,1.3-4.5,4.8-3.2,7.8l0.9,2.2C283.3,313.2,286.8,314.7,289.9,313.4z"/>
<path class="st3" d="M263.1,247.6c0.6,0,1.2-0.1,1.7-0.3l38.9-15.7c2.3-0.9,3.4-3.6,2.5-5.9l-3-7.4c-0.9-2.3-3.6-3.4-5.9-2.5
	l-38.9,15.7c-2.3,0.9-3.4,3.6-2.5,5.9l3,7.4C259.6,246.5,261.2,247.6,263.1,247.6z"/>
<path class="st3" d="M344.8,483.5h140c0.6,0,1-0.4,1-1s-0.4-1-1-1h-140c-0.6,0-1,0.4-1,1S344.3,483.5,344.8,483.5z"/>
</svg>
